# xmcd
#
# Track frame offsets: 
#        225
#        11940
#        27195
#        39735
#        54042
#        67242
#        80347
#        97315
#        110217
#        123805
#        137095
#        150047
#        162760
#        178577
#        192010
#        206080
#        217855
#        229125
#        243150
#        254320
#
# Disc length: 3646 seconds
#
# Revision: 0
# Processed by: cddbd v1.5.2PL0 Copyright (c) Steve Scherf et al.
# Submitted via: ExactAudioCopy v0.90a11
#
DISCID=0d0e3b14
DTITLE=Various Artist - 20 Golden Country Songs
DYEAR=1988
DGENRE=country
TTITLE0=W. Holyfield - Some Broken Hearts Never Mend
TTITLE1=L. Weiss - Rhinestone Cowboy
TTITLE2=H. Williams - Jambalaya
TTITLE3=J. Frazy - Red River Valley
TTITLE4=B. Braddock and C. Putman - D.I.V.O.R.C.E.
TTITLE5=J. Frazy - Mystery Maiden
TTITLE6=H. Henderson - Big John
TTITLE7=J. Frazy - All The Good Times
TTITLE8=J. Frazy - Can You Spare A Dime
TTITLE9=J. Frazy - Red Light Lady Love
TTITLE10=J. South - Rose Garden
TTITLE11=J. Frazy - Fine Country Singin'
TTITLE12=R. Bowling - Blanket On The Ground
TTITLE13=J. Frazy - Give Me A Shoulder
TTITLE14=J. Frazy - Your Foolish Pride
TTITLE15=B. Sherrill and T. Wynette - Stand By Your Man
TTITLE16=J. Frazy - Oh Suzanna
TTITLE17=J. Frazy - All That Country Loving
TTITLE18=E.R. Hubbard - A Thing Called Love
TTITLE19=R. Howling and B.E. Wheeler - Coward Of The County
EXTD=
EXTT0=
EXTT1=
EXTT2=
EXTT3=
EXTT4=
EXTT5=
EXTT6=
EXTT7=
EXTT8=
EXTT9=
EXTT10=
EXTT11=
EXTT12=
EXTT13=
EXTT14=
EXTT15=
EXTT16=
EXTT17=
EXTT18=
EXTT19=
PLAYORDER=
